<svg width="194" height="50" viewBox="0 0 194 50" fill="none" xmlns="http://www.w3.org/2000/svg">
<rect width="194" height="50" rx="6" fill="#262626"/>
<g clip-path="url(#clip0_7621_5685)">
<mask id="mask0_7621_5685" style="mask-type:luminance" maskUnits="userSpaceOnUse" x="16" y="8" width="33" height="34">
<path d="M45.0597 8H19.9403C17.7641 8 16 9.76491 16 11.942V38.058C16 40.2351 17.7641 42 19.9403 42H45.0597C47.2359 42 49 40.2351 49 38.058V11.942C49 9.76491 47.2359 8 45.0597 8Z" fill="white"/>
</mask>
<g mask="url(#mask0_7621_5685)">
<path d="M48.0272 54.1833H16.9728C16.431 54.1833 16 53.7522 16 53.2101V8.97319C16 8.43116 16.431 8 16.9728 8H48.0272C48.569 8 49 8.43116 49 8.97319V53.2101C49 53.7399 48.569 54.1833 48.0272 54.1833Z" fill="#262626"/>
<path d="M44.555 18.6805C44.555 18.3232 44.2964 17.8798 43.9886 17.7073L33.0543 11.4001C32.7464 11.2153 32.2416 11.2153 31.9337 11.4001L21.0117 17.7073C20.7039 17.8798 20.4453 18.3232 20.4453 18.6805V31.3073C20.4453 31.6646 20.7039 32.108 21.0117 32.2805L31.9461 38.5877C32.2539 38.7602 32.7587 38.7602 33.0666 38.5877L44.0009 32.2805C44.3087 32.108 44.5673 31.6646 44.5673 31.3073L44.555 18.6805Z" fill="white"/>
<path d="M38.2499 24.8029L35.3809 29.0159L33.9033 26.7615L35.6025 24.2239C35.9227 23.7681 36.5876 22.5362 35.8119 20.8362C35.1839 19.4565 33.8171 18.7913 32.6104 18.7913C31.416 18.7913 30.0984 19.4072 29.4089 20.8362C28.6208 22.4623 29.3104 23.7558 29.6059 24.1746C29.6059 24.1746 30.5417 25.5543 31.3421 26.7246L32.6227 28.5724L34.5436 31.5166C34.5559 31.5413 34.8637 32.0094 35.4055 32.0094C35.9227 32.0094 36.2305 31.5536 36.2675 31.492L40.7742 24.8275H38.2499V24.8029ZM32.5981 24.9014C32.5981 24.9014 31.847 23.7558 31.3544 22.9673C30.8373 22.1173 31.416 20.8362 32.5981 20.8362C33.7802 20.8362 34.3589 22.105 33.8417 22.9673C33.3492 23.7681 32.5981 24.9014 32.5981 24.9014Z" fill="url(#paint0_radial_7621_5685)"/>
<path d="M29.8284 28.868L27.0086 24.9014C27.0086 24.9014 26.2575 23.7557 25.765 22.955C25.2478 22.105 25.8265 20.8238 27.0086 20.8238C27.1564 20.8238 27.2918 20.8485 27.4273 20.8854L28.4247 19.0623C27.9691 18.8652 27.4888 18.7666 27.0332 18.7666C25.8388 18.7666 24.5213 19.3825 23.8317 20.8115C23.0437 22.4376 23.7332 23.7311 24.0288 24.1499L28.9664 31.455C29.0034 31.5166 29.3235 31.9847 29.8407 31.9847C30.3702 31.9847 30.6657 31.5289 30.7026 31.4796L32.1926 29.213L30.912 27.3282L29.8284 28.868Z" fill="url(#paint1_radial_7621_5685)"/>
</g>
</g>
<path d="M62.8594 25.7578H59.8984V24.2031H62.8594C63.375 24.2031 63.7917 24.1198 64.1094 23.9531C64.4271 23.7865 64.6589 23.5573 64.8047 23.2656C64.9557 22.9688 65.0312 22.6302 65.0312 22.25C65.0312 21.8906 64.9557 21.5547 64.8047 21.2422C64.6589 20.9245 64.4271 20.6693 64.1094 20.4766C63.7917 20.2839 63.375 20.1875 62.8594 20.1875H60.5V30H58.5391V18.625H62.8594C63.7396 18.625 64.487 18.7812 65.1016 19.0938C65.7214 19.401 66.1927 19.8281 66.5156 20.375C66.8385 20.9167 67 21.5365 67 22.2344C67 22.9688 66.8385 23.599 66.5156 24.125C66.1927 24.651 65.7214 25.0547 65.1016 25.3359C64.487 25.6172 63.7396 25.7578 62.8594 25.7578ZM73.7422 28.3047V24.2734C73.7422 23.9714 73.6875 23.7109 73.5781 23.4922C73.4688 23.2734 73.3021 23.1042 73.0781 22.9844C72.8594 22.8646 72.5833 22.8047 72.25 22.8047C71.9427 22.8047 71.6771 22.8568 71.4531 22.9609C71.2292 23.0651 71.0547 23.2057 70.9297 23.3828C70.8047 23.5599 70.7422 23.7604 70.7422 23.9844H68.8672C68.8672 23.651 68.9479 23.3281 69.1094 23.0156C69.2708 22.7031 69.5052 22.4245 69.8125 22.1797C70.1198 21.9349 70.487 21.7422 70.9141 21.6016C71.3411 21.4609 71.8203 21.3906 72.3516 21.3906C72.987 21.3906 73.5495 21.4974 74.0391 21.7109C74.5339 21.9245 74.9219 22.2474 75.2031 22.6797C75.4896 23.1068 75.6328 23.6432 75.6328 24.2891V28.0469C75.6328 28.4323 75.6589 28.7786 75.7109 29.0859C75.7682 29.388 75.849 29.651 75.9531 29.875V30H74.0234C73.9349 29.7969 73.8646 29.5391 73.8125 29.2266C73.7656 28.9089 73.7422 28.6016 73.7422 28.3047ZM74.0156 24.8594L74.0312 26.0234H72.6797C72.3307 26.0234 72.0234 26.0573 71.7578 26.125C71.4922 26.1875 71.2708 26.2812 71.0938 26.4062C70.9167 26.5312 70.7839 26.6823 70.6953 26.8594C70.6068 27.0365 70.5625 27.237 70.5625 27.4609C70.5625 27.6849 70.6146 27.8906 70.7188 28.0781C70.8229 28.2604 70.974 28.4036 71.1719 28.5078C71.375 28.612 71.6198 28.6641 71.9062 28.6641C72.2917 28.6641 72.6276 28.5859 72.9141 28.4297C73.2057 28.2682 73.4349 28.0729 73.6016 27.8438C73.7682 27.6094 73.8568 27.388 73.8672 27.1797L74.4766 28.0156C74.4141 28.2292 74.3073 28.4583 74.1562 28.7031C74.0052 28.9479 73.8073 29.1823 73.5625 29.4062C73.3229 29.625 73.0339 29.8047 72.6953 29.9453C72.362 30.0859 71.9766 30.1562 71.5391 30.1562C70.987 30.1562 70.4948 30.0469 70.0625 29.8281C69.6302 29.6042 69.2917 29.3047 69.0469 28.9297C68.8021 28.5495 68.6797 28.1198 68.6797 27.6406C68.6797 27.1927 68.763 26.7969 68.9297 26.4531C69.1016 26.1042 69.3516 25.8125 69.6797 25.5781C70.013 25.3438 70.4193 25.1667 70.8984 25.0469C71.3776 24.9219 71.9245 24.8594 72.5391 24.8594H74.0156ZM80.4297 29.0781L82.7266 21.5469H84.7422L81.3516 31.2891C81.2734 31.4974 81.1719 31.724 81.0469 31.9688C80.9219 32.2135 80.7578 32.4453 80.5547 32.6641C80.3568 32.888 80.1094 33.0677 79.8125 33.2031C79.5156 33.3438 79.1562 33.4141 78.7344 33.4141C78.5677 33.4141 78.4062 33.3984 78.25 33.3672C78.099 33.3411 77.9557 33.3125 77.8203 33.2812L77.8125 31.8438C77.8646 31.849 77.9271 31.8542 78 31.8594C78.0781 31.8646 78.1406 31.8672 78.1875 31.8672C78.5 31.8672 78.7604 31.8281 78.9688 31.75C79.1771 31.6771 79.3464 31.5573 79.4766 31.3906C79.612 31.224 79.7266 31 79.8203 30.7188L80.4297 29.0781ZM79.1328 21.5469L81.1406 27.875L81.4766 29.8594L80.1719 30.1953L77.1016 21.5469H79.1328ZM93.1016 28.125L95.0547 21.5469H96.2578L95.9297 23.5156L93.9609 30H92.8828L93.1016 28.125ZM91.9531 21.5469L93.4766 28.1562L93.6016 30H92.3984L90.1094 21.5469H91.9531ZM98.0859 28.0781L99.5625 21.5469H101.398L99.1172 30H97.9141L98.0859 28.0781ZM96.4609 21.5469L98.3906 28.0469L98.6328 30H97.5547L95.5625 23.5078L95.2344 21.5469H96.4609ZM105.195 21.5469V30H103.305V21.5469H105.195ZM103.18 19.3281C103.18 19.0417 103.273 18.8047 103.461 18.6172C103.654 18.4245 103.919 18.3281 104.258 18.3281C104.591 18.3281 104.854 18.4245 105.047 18.6172C105.24 18.8047 105.336 19.0417 105.336 19.3281C105.336 19.6094 105.24 19.8438 105.047 20.0312C104.854 20.2188 104.591 20.3125 104.258 20.3125C103.919 20.3125 103.654 20.2188 103.461 20.0312C103.273 19.8438 103.18 19.6094 103.18 19.3281ZM111.633 21.5469V22.9219H106.867V21.5469H111.633ZM108.242 19.4766H110.125V27.6641C110.125 27.9245 110.161 28.125 110.234 28.2656C110.312 28.401 110.419 28.4922 110.555 28.5391C110.69 28.5859 110.849 28.6094 111.031 28.6094C111.161 28.6094 111.286 28.6016 111.406 28.5859C111.526 28.5703 111.622 28.5547 111.695 28.5391L111.703 29.9766C111.547 30.0234 111.365 30.0651 111.156 30.1016C110.953 30.138 110.719 30.1562 110.453 30.1562C110.021 30.1562 109.638 30.0807 109.305 29.9297C108.971 29.7734 108.711 29.5208 108.523 29.1719C108.336 28.8229 108.242 28.3594 108.242 27.7812V19.4766ZM115.445 18V30H113.57V18H115.445ZM115.117 25.4609L114.508 25.4531C114.513 24.8698 114.594 24.3307 114.75 23.8359C114.911 23.3411 115.135 22.9115 115.422 22.5469C115.714 22.1771 116.062 21.8932 116.469 21.6953C116.875 21.4922 117.326 21.3906 117.82 21.3906C118.237 21.3906 118.612 21.4479 118.945 21.5625C119.284 21.6771 119.576 21.862 119.82 22.1172C120.065 22.3672 120.25 22.6953 120.375 23.1016C120.505 23.5026 120.57 23.9922 120.57 24.5703V30H118.68V24.5547C118.68 24.1484 118.62 23.8255 118.5 23.5859C118.385 23.3464 118.216 23.1745 117.992 23.0703C117.768 22.9609 117.495 22.9062 117.172 22.9062C116.833 22.9062 116.534 22.974 116.273 23.1094C116.018 23.2448 115.805 23.4297 115.633 23.6641C115.461 23.8984 115.331 24.1693 115.242 24.4766C115.159 24.7839 115.117 25.112 115.117 25.4609ZM131.953 18.625V30H130.008V18.625H131.953ZM135.523 18.625V20.1875H126.469V18.625H135.523ZM140.5 27.4453L142.766 18.625H143.953L143.82 20.8984L141.398 30H140.164L140.5 27.4453ZM138.805 18.625L140.641 27.375L140.805 30H139.492L136.859 18.625H138.805ZM146.523 27.3516L148.336 18.625H150.289L147.656 30H146.344L146.523 27.3516ZM144.414 18.625L146.656 27.4688L146.984 30H145.75L143.367 20.8984L143.242 18.625H144.414ZM154.336 18.625V30H152.375V18.625H154.336ZM166.297 18.625V30H164.336L159.234 21.8516V30H157.273V18.625H159.234L164.352 26.7891V18.625H166.297ZM173.578 18.625V30H171.633V18.625H173.578ZM177.148 18.625V20.1875H168.094V18.625H177.148Z" fill="white"/>
<defs>
<radialGradient id="paint0_radial_7621_5685" cx="0" cy="0" r="1" gradientUnits="userSpaceOnUse" gradientTransform="translate(23.3571 12.0411) scale(37.3344 46.3884)">
<stop stop-color="#FFCC00"/>
<stop offset="0.0915684" stop-color="#FFC800"/>
<stop offset="0.1739" stop-color="#FFBD00"/>
<stop offset="0.2528" stop-color="#FFAB00"/>
<stop offset="0.3295" stop-color="#FF9100"/>
<stop offset="0.4046" stop-color="#FF7000"/>
<stop offset="0.4786" stop-color="#FF4700"/>
<stop offset="0.5503" stop-color="#FF1800"/>
<stop offset="0.5822" stop-color="#FF0000"/>
<stop offset="1" stop-color="#FF0000"/>
</radialGradient>
<radialGradient id="paint1_radial_7621_5685" cx="0" cy="0" r="1" gradientUnits="userSpaceOnUse" gradientTransform="translate(23.6603 20.7117) scale(12.1684 12.1737)">
<stop stop-color="#00B4E6"/>
<stop offset="0.201" stop-color="#00B0E3"/>
<stop offset="0.3898" stop-color="#01A5DB"/>
<stop offset="0.5737" stop-color="#0292CD"/>
<stop offset="0.7546" stop-color="#0377BA"/>
<stop offset="0.9316" stop-color="#0455A1"/>
<stop offset="1" stop-color="#054696"/>
</radialGradient>
<clipPath id="clip0_7621_5685">
<rect width="33" height="34" fill="white" transform="translate(16 8)"/>
</clipPath>
</defs>
</svg>
